STARTFONT 2.1
COMMENT AUTOMATICALLY GENERATED FILE. DO NOT EDIT!
COMMENT Generated with 'ucs2any.pl lutRS18.bdf ../../../fonts/util/map-ISO8859-1 ISO8859-1'
COMMENT from an ISO10646-1 encoded source BDF font.
COMMENT ucs2any.pl by Markus Kuhn <mkuhn@acm.org>, 2000.
COMMENT $Xorg: $
COMMENT ISO10646-1 extension by Markus Kuhn <mkuhn@acm.org>, 2001-03-20
FONT -B&H-LucidaTypewriter-Medium-R-Normal-Sans-25-180-100-100-M-150-ISO8859-1
SIZE 18 100 100
FONTBOUNDINGBOX 19 28 -2 -5
STARTPROPERTIES 22
FONTNAME_REGISTRY ""
FOUNDRY "B&H"
FAMILY_NAME "LucidaTypewriter"
WEIGHT_NAME "Medium"
SLANT "R"
SETWIDTH_NAME "Normal"
ADD_STYLE_NAME "Sans"
PIXEL_SIZE 25
POINT_SIZE 180
RESOLUTION_X 100
RESOLUTION_Y 100
SPACING "M"
AVERAGE_WIDTH 150
CHARSET_REGISTRY "ISO8859"
CHARSET_ENCODING "1"
FONT_ASCENT 23
FONT_DESCENT 5
DEFAULT_CHAR 0
COPYRIGHT "Copyright Bigelow & Holmes 1986, 1985."
FACE_NAME "Lucida Sans Typewriter"
X_HEIGHT 13
CAP_HEIGHT 18
ENDPROPERTIES
CHARS 192
STARTCHAR defaultchar
ENCODING 0
SWIDTH 602 0
DWIDTH 15 0
BBX 11 17 2 0
BITMAP
AAA0
0000
8020
0000
8020
0000
8020
0000
8020
0000
8020
0000
8020
0000
8020
0000
AAA0
ENDCHAR
STARTCHAR space
ENCODING 32
SWIDTH 602 0
DWIDTH 15 0
BBX 1 1 0 0
BITMAP
00
ENDCHAR
STARTCHAR exclam
ENCODING 33
SWIDTH 602 0
DWIDTH 15 0
BBX 4 18 5 0
BITMAP
70
70
70
70
70
70
70
70
60
60
60
60
60
00
00
F0
F0
F0
ENDCHAR
STARTCHAR quotedbl
ENCODING 34
SWIDTH 602 0
DWIDTH 15 0
BBX 10 6 3 12
BITMAP
E1C0
E1C0
E1C0
6180
6180
6180
ENDCHAR
STARTCHAR numbersign
ENCODING 35
SWIDTH 602 0
DWIDTH 15 0
BBX 14 18 1 0
BITMAP
0338
0730
0630
0630
0660
7FFC
7FFC
0C60
0CC0
18C0
FFF8
FFF8
1980
3180
3180
3180
3300
7300
ENDCHAR
STARTCHAR dollar
ENCODING 36
SWIDTH 602 0
DWIDTH 15 0
BBX 10 21 3 -2
BITMAP
0C00
3F80
7FC0
EC00
EC00
EC00
EC00
7C00
3C00
1C00
0F00
0F80
0DC0
0DC0
0DC0
0DC0
8D80
FF80
7F00
0C00
0C00
ENDCHAR
STARTCHAR percent
ENCODING 37
SWIDTH 602 0
DWIDTH 15 0
BBX 14 18 0 0
BITMAP
380C
6C18
C638
C630
C660
C6E0
6DC0
3980
0380
0700
0670
0ED8
1D8C
198C
318C
718C
60D8
C070
ENDCHAR
STARTCHAR ampersand
ENCODING 38
SWIDTH 602 0
DWIDTH 15 0
BBX 15 18 0 0
BITMAP
0780
0FC0
1CE0
1CE0
1CE0
1DC0
0FC0
0F00
3F0E
778E
E38E
E3CC
E1CC
E0FC
F0F8
78F0
3FD8
1F9E
ENDCHAR
STARTCHAR quotesingle
ENCODING 39
SWIDTH 602 0
DWIDTH 15 0
BBX 4 6 5 12
BITMAP
F0
F0
F0
60
60
60
ENDCHAR
STARTCHAR parenleft
ENCODING 40
SWIDTH 602 0
DWIDTH 15 0
BBX 10 22 4 -4
BITMAP
01C0
07C0
1E00
3C00
3800
7000
7000
E000
E000
E000
E000
E000
E000
E000
6000
7000
3000
3800
1C00
0E00
07C0
00C0
ENDCHAR
STARTCHAR parenright
ENCODING 41
SWIDTH 602 0
DWIDTH 15 0
BBX 10 22 1 -4
BITMAP
C000
F800
1C00
0E00
0700
0380
0380
0180
01C0
01C0
01C0
01C0
01C0
01C0
01C0
0380
0380
0700
0E00
1C00
F800
C000
ENDCHAR
STARTCHAR asterisk
ENCODING 42
SWIDTH 602 0
DWIDTH 15 0
BBX 11 11 2 7
BITMAP
0E00
0E00
0400
C440
F1E0
3180
0900
1B00
3B80
71C0
1100
ENDCHAR
STARTCHAR plus
ENCODING 43
SWIDTH 602 0
DWIDTH 15 0
BBX 14 13 0 0
BITMAP
0300
0300
0300
0300
0300
0300
FFFC
FFFC
0300
0300
0300
0300
0300
ENDCHAR
STARTCHAR comma
ENCODING 44
SWIDTH 602 0
DWIDTH 15 0
BBX 4 8 5 -4
BITMAP
F0
F0
F0
F0
30
30
60
C0
ENDCHAR
STARTCHAR hyphen
ENCODING 45
SWIDTH 602 0
DWIDTH 15 0
BBX 13 2 1 5
BITMAP
FFF8
FFF8
ENDCHAR
STARTCHAR period
ENCODING 46
SWIDTH 602 0
DWIDTH 15 0
BBX 4 4 5 0
BITMAP
F0
F0
F0
F0
ENDCHAR
STARTCHAR slash
ENCODING 47
SWIDTH 602 0
DWIDTH 15 0
BBX 13 22 1 -4
BITMAP
0018
0030
0030
0060
0060
00C0
00C0
0180
0180
0300
0300
0600
0600
0C00
0C00
1800
1800
3000
3000
6000
6000
C000
ENDCHAR
STARTCHAR zero
ENCODING 48
SWIDTH 602 0
DWIDTH 15 0
BBX 12 18 1 0
BITMAP
0F00
3FC0
31C0
70E0
60E0
E070
E070
E070
E070
E070
E070
E070
E070
6060
70E0
30C0
3FC0
0F00
ENDCHAR
STARTCHAR one
ENCODING 49
SWIDTH 602 0
DWIDTH 15 0
BBX 13 18 2 0
BITMAP
0700
3F00
FF00
8700
0700
0700
0700
0700
0700
0700
0700
0700
0700
0700
0700
0700
FFF8
FFF8
ENDCHAR
STARTCHAR two
ENCODING 50
SWIDTH 602 0
DWIDTH 15 0
BBX 11 18 2 0
BITMAP
3F00
FFC0
C1C0
00E0
00E0
00E0
00E0
01C0
0380
0700
0E00
1C00
3800
3000
7000
E000
FFE0
FFE0
ENDCHAR
STARTCHAR three
ENCODING 51
SWIDTH 602 0
DWIDTH 15 0
BBX 10 18 3 0
BITMAP
7E00
FF80
83C0
01C0
01C0
01C0
0380
3F00
3C00
0700
0380
01C0
01C0
01C0
01C0
8380
FF00
FE00
ENDCHAR
STARTCHAR four
ENCODING 52
SWIDTH 602 0
DWIDTH 15 0
BBX 13 18 1 0
BITMAP
00E0
01E0
03E0
03E0
06E0
0EE0
1CE0
38E0
30E0
70E0
E0E0
FFF8
FFF8
00E0
00E0
00E0
00E0
00E0
ENDCHAR
STARTCHAR five
ENCODING 53
SWIDTH 602 0
DWIDTH 15 0
BBX 9 18 3 0
BITMAP
FF80
FF80
C000
C000
C000
C000
F800
FE00
0F00
0700
0380
0380
0380
0380
0780
8700
FE00
FC00
ENDCHAR
STARTCHAR six
ENCODING 54
SWIDTH 602 0
DWIDTH 15 0
BBX 12 18 2 0
BITMAP
07C0
1FE0
3C20
7000
7000
6000
E000
E780
EFE0
F0E0
E070
E070
E070
E070
7070
70E0
3FC0
0F80
ENDCHAR
STARTCHAR seven
ENCODING 55
SWIDTH 602 0
DWIDTH 15 0
BBX 11 18 2 0
BITMAP
FFE0
FFE0
FFE0
00C0
01C0
0180
0380
0300
0700
0600
0E00
1C00
1C00
3800
3800
3800
7000
7000
ENDCHAR
STARTCHAR eight
ENCODING 56
SWIDTH 602 0
DWIDTH 15 0
BBX 12 18 2 0
BITMAP
0F80
3FC0
78E0
7060
7060
7060
38C0
1F80
1F80
3FC0
71E0
E0F0
E070
E070
E070
70E0
7FC0
1F80
ENDCHAR
STARTCHAR nine
ENCODING 57
SWIDTH 602 0
DWIDTH 15 0
BBX 12 18 2 0
BITMAP
1F00
3FC0
70E0
E0E0
E070
E070
E070
E070
70F0
7F70
1E70
0070
0060
00E0
00E0
43C0
7F80
3E00
ENDCHAR
STARTCHAR colon
ENCODING 58
SWIDTH 602 0
DWIDTH 15 0
BBX 4 13 5 0
BITMAP
F0
F0
F0
F0
00
00
00
00
00
F0
F0
F0
F0
ENDCHAR
STARTCHAR semicolon
ENCODING 59
SWIDTH 602 0
DWIDTH 15 0
BBX 4 17 5 -4
BITMAP
F0
F0
F0
F0
00
00
00
00
00
F0
F0
F0
F0
30
30
60
C0
ENDCHAR
STARTCHAR less
ENCODING 60
SWIDTH 602 0
DWIDTH 15 0
BBX 13 13 1 0
BITMAP
0008
0038
00F0
03C0
0F00
3C00
F000
3C00
0F00
03C0
00F0
0038
0008
ENDCHAR
STARTCHAR equal
ENCODING 61
SWIDTH 602 0
DWIDTH 15 0
BBX 13 6 1 3
BITMAP
FFF8
FFF8
0000
0000
FFF8
FFF8
ENDCHAR
STARTCHAR greater
ENCODING 62
SWIDTH 602 0
DWIDTH 15 0
BBX 13 13 1 0
BITMAP
8000
E000
7800
1E00
0780
01E0
0078
01E0
0780
1E00
7800
E000
8000
ENDCHAR
STARTCHAR question
ENCODING 63
SWIDTH 602 0
DWIDTH 15 0
BBX 12 18 2 0
BITMAP
7F80
FFE0
C0F0
C070
0070
0070
00E0
03C0
0780
0E00
1C00
1C00
1C00
0000
0000
1C00
1C00
1C00
ENDCHAR
STARTCHAR at
ENCODING 64
SWIDTH 602 0
DWIDTH 15 0
BBX 15 18 0 0
BITMAP
07E0
1FF0
3C38
3018
60F8
6118
C318
C618
C638
C638
C678
C678
E3DE
639E
7000
3820
1FE0
0FC0
ENDCHAR
STARTCHAR A
ENCODING 65
SWIDTH 602 0
DWIDTH 15 0
BBX 15 18 0 0
BITMAP
0380
03C0
07C0
07C0
07E0
0EE0
0CE0
0CF0
1870
1870
1838
3FF8
3FF8
301C
601C
601C
600E
C00E
ENDCHAR
STARTCHAR B
ENCODING 66
SWIDTH 602 0
DWIDTH 15 0
BBX 11 18 2 0
BITMAP
FF00
FF80
E3C0
E1C0
E1C0
E1C0
E180
E300
FE00
FF00
E3C0
E1C0
E0E0
E0E0
E0E0
E1E0
FFC0
FF80
ENDCHAR
STARTCHAR C
ENCODING 67
SWIDTH 602 0
DWIDTH 15 0
BBX 13 18 1 0
BITMAP
07F0
1FF8
3C18
7800
7000
7000
E000
E000
E000
E000
E000
E000
F000
7000
7800
3E08
1FF8
07F0
ENDCHAR
STARTCHAR D
ENCODING 68
SWIDTH 602 0
DWIDTH 15 0
BBX 13 18 1 0
BITMAP
FF80
FFE0
E1F0
E070
E078
E038
E038
E038
E038
E038
E038
E038
E038
E070
E070
E1E0
FFC0
FF00
ENDCHAR
STARTCHAR E
ENCODING 69
SWIDTH 602 0
DWIDTH 15 0
BBX 12 18 2 0
BITMAP
FFE0
FFE0
E000
E000
E000
E000
E000
FFC0
FFC0
E000
E000
E000
E000
E000
E000
E000
FFF0
FFF0
ENDCHAR
STARTCHAR F
ENCODING 70
SWIDTH 602 0
DWIDTH 15 0
BBX 12 18 3 0
BITMAP
FFF0
FFF0
E000
E000
E000
E000
E000
E000
FFE0
FFC0
E000
E000
E000
E000
E000
E000
E000
E000
ENDCHAR
STARTCHAR G
ENCODING 71
SWIDTH 602 0
DWIDTH 15 0
BBX 13 18 1 0
BITMAP
07F0
1FF8
3C08
7800
7000
7000
E000
E000
E000
E000
E038
E038
F038
7038
7838
3C38
1FF8
07F0
ENDCHAR
STARTCHAR H
ENCODING 72
SWIDTH 602 0
DWIDTH 15 0
BBX 11 18 2 0
BITMAP
E0E0
E0E0
E0E0
E0E0
E0E0
E0E0
E0E0
E0E0
FFE0
FFE0
E0E0
E0E0
E0E0
E0E0
E0E0
E0E0
E0E0
E0E0
ENDCHAR
STARTCHAR I
ENCODING 73
SWIDTH 602 0
DWIDTH 15 0
BBX 11 18 2 0
BITMAP
FFE0
FFE0
0E00
0E00
0E00
0E00
0E00
0E00
0E00
0E00
0E00
0E00
0E00
0E00
0E00
0E00
FFE0
FFE0
ENDCHAR
STARTCHAR J
ENCODING 74
SWIDTH 602 0
DWIDTH 15 0
BBX 10 18 2 0
BITMAP
7FC0
7FC0
01C0
01C0
01C0
01C0
01C0
01C0
01C0
01C0
01C0
01C0
01C0
01C0
01C0
8380
FF00
7E00
ENDCHAR
STARTCHAR K
ENCODING 75
SWIDTH 602 0
DWIDTH 15 0
BBX 13 18 2 0
BITMAP
E070
E0E0
E0C0
E180
E380
E700
E600
EE00
FC00
FE00
EF00
E700
E780
E3C0
E1E0
E0F0
E070
E078
ENDCHAR
STARTCHAR L
ENCODING 76
SWIDTH 602 0
DWIDTH 15 0
BBX 11 18 3 0
BITMAP
E000
E000
E000
E000
E000
E000
E000
E000
E000
E000
E000
E000
E000
E000
E000
E000
FFE0
FFE0
ENDCHAR
STARTCHAR M
ENCODING 77
SWIDTH 602 0
DWIDTH 15 0
BBX 13 18 1 0
BITMAP
E038
F078
F078
F078
F078
D8D8
D8D8
D8D8
D8D8
DD98
CD98
CD98
CD98
CF98
C718
C718
C718
C018
ENDCHAR
STARTCHAR N
ENCODING 78
SWIDTH 602 0
DWIDTH 15 0
BBX 11 18 2 0
BITMAP
E060
E060
F060
F060
F860
F860
DC60
DC60
CE60
CE60
C760
C760
C3E0
C3E0
C1E0
C1E0
C0E0
C0E0
ENDCHAR
STARTCHAR O
ENCODING 79
SWIDTH 602 0
DWIDTH 15 0
BBX 14 18 0 0
BITMAP
0FC0
1FE0
3870
7038
7038
E01C
E01C
E01C
E01C
E01C
E01C
E01C
E01C
7038
7038
3870
1FE0
0FC0
ENDCHAR
STARTCHAR P
ENCODING 80
SWIDTH 602 0
DWIDTH 15 0
BBX 11 18 3 0
BITMAP
FF80
FFC0
E1E0
E0E0
E0E0
E0E0
E0E0
E0C0
E1C0
FF80
FE00
E000
E000
E000
E000
E000
E000
E000
ENDCHAR
STARTCHAR Q
ENCODING 81
SWIDTH 602 0
DWIDTH 15 0
BBX 15 22 1 -4
BITMAP
0FC0
1FE0
3870
7038
7038
E01C
E01C
E01C
E01C
E01C
E01C
E01C
E01C
7038
7038
3870
1FF0
0FC0
00E0
0078
001E
000C
ENDCHAR
STARTCHAR R
ENCODING 82
SWIDTH 602 0
DWIDTH 15 0
BBX 13 18 2 0
BITMAP
FF00
FF80
E3C0
E1C0
E1C0
E1C0
E1C0
E380
E300
FE00
FE00
E700
E780
E380
E1C0
E1E0
E0F0
E0F8
ENDCHAR
STARTCHAR S
ENCODING 83
SWIDTH 602 0
DWIDTH 15 0
BBX 12 18 2 0
BITMAP
1F80
7FC0
F040
E000
E000
E000
F800
7E00
1F80
07C0
03E0
00F0
0070
0070
0070
C0E0
FFC0
7F80
ENDCHAR
STARTCHAR T
ENCODING 84
SWIDTH 602 0
DWIDTH 15 0
BBX 15 18 0 0
BITMAP
FFFE
FFFE
0380
0380
0380
0380
0380
0380
0380
0380
0380
0380
0380
0380
0380
0380
0380
0380
ENDCHAR
STARTCHAR U
ENCODING 85
SWIDTH 602 0
DWIDTH 15 0
BBX 11 18 2 0
BITMAP
E060
E060
E060
E060
E060
E060
E060
E060
E060
E060
E060
E060
E060
E060
E060
70C0
7FC0
1F00
ENDCHAR
STARTCHAR V
ENCODING 86
SWIDTH 602 0
DWIDTH 15 0
BBX 15 18 0 0
BITMAP
E006
E00C
700C
700C
7018
3818
3818
3830
1C30
1C30
1C60
0E60
0EE0
0FC0
07C0
07C0
0780
0380
ENDCHAR
STARTCHAR W
ENCODING 87
SWIDTH 602 0
DWIDTH 15 0
BBX 15 18 0 0
BITMAP
C006
C386
C386
C384
E78C
67CC
67CC
66CC
66CC
64C8
6CC8
6CD8
6CF8
7CF8
3C78
3870
3870
3870
ENDCHAR
STARTCHAR X
ENCODING 88
SWIDTH 602 0
DWIDTH 15 0
BBX 15 18 0 0
BITMAP
F00E
781C
3818
3C30
1E70
0E60
0FC0
07C0
0380
03C0
07E0
0EE0
0CF0
1870
3838
303C
601C
E01E
ENDCHAR
STARTCHAR Y
ENCODING 89
SWIDTH 602 0
DWIDTH 15 0
BBX 15 18 0 0
BITMAP
E00E
700C
7818
3818
3C30
1C70
1E60
0FE0
07C0
0780
0380
0380
0380
0380
0380
0380
0380
0380
ENDCHAR
STARTCHAR Z
ENCODING 90
SWIDTH 602 0
DWIDTH 15 0
BBX 13 18 1 0
BITMAP
7FF8
7FF8
0078
00F0
00E0
01E0
03C0
0380
0780
0F00
0E00
1E00
3C00
7800
7000
F000
FFF8
FFF8
ENDCHAR
STARTCHAR bracketleft
ENCODING 91
SWIDTH 602 0
DWIDTH 15 0
BBX 7 22 6 -4
BITMAP
FE
FE
C0
C0
C0
C0
C0
C0
C0
C0
C0
C0
C0
C0
C0
C0
C0
C0
C0
C0
FE
FE
ENDCHAR
STARTCHAR backslash
ENCODING 92
SWIDTH 602 0
DWIDTH 15 0
BBX 13 22 1 -4
BITMAP
C000
6000
6000
3000
3000
1800
1800
0C00
0C00
0600
0600
0300
0300
0180
0180
00C0
00C0
0060
0060
0030
0030
0018
ENDCHAR
STARTCHAR bracketright
ENCODING 93
SWIDTH 602 0
DWIDTH 15 0
BBX 7 22 2 -4
BITMAP
FE
FE
06
06
06
06
06
06
06
06
06
06
06
06
06
06
06
06
06
06
FE
FE
ENDCHAR
STARTCHAR asciicircum
ENCODING 94
SWIDTH 602 0
DWIDTH 15 0
BBX 13 15 1 3
BITMAP
0200
0200
0700
0700
0F80
0D80
0D80
18C0
18C0
3060
3060
7070
6030
6030
C018
ENDCHAR
STARTCHAR underscore
ENCODING 95
SWIDTH 602 0
DWIDTH 15 0
BBX 15 2 0 -2
BITMAP
FFFE
FFFE
ENDCHAR
STARTCHAR grave
ENCODING 96
SWIDTH 602 0
DWIDTH 15 0
BBX 5 4 5 14
BITMAP
E0
60
30
18
ENDCHAR
STARTCHAR a
ENCODING 97
SWIDTH 602 0
DWIDTH 15 0
BBX 13 13 2 0
BITMAP
1F80
7FC0
40E0
00E0
00E0
1FE0
7FE0
70E0
E0E0
E0E0
F1E0
7F78
3E78
ENDCHAR
STARTCHAR b
ENCODING 98
SWIDTH 602 0
DWIDTH 15 0
BBX 12 18 2 0
BITMAP
E000
E000
E000
E000
E000
E780
EFE0
F8E0
F070
E070
E070
E070
E070
E070
E0E0
F1E0
DFC0
CF80
ENDCHAR
STARTCHAR c
ENCODING 99
SWIDTH 602 0
DWIDTH 15 0
BBX 12 13 2 0
BITMAP
0FE0
3FF0
7830
7000
E000
E000
E000
E000
E000
7000
7810
3FF0
0FE0
ENDCHAR
STARTCHAR d
ENCODING 100
SWIDTH 602 0
DWIDTH 15 0
BBX 12 18 1 0
BITMAP
0070
0070
0070
0070
0070
1E70
3F70
78F0
7070
E070
E070
E070
E070
E070
E0F0
71F0
7F70
1E70
ENDCHAR
STARTCHAR e
ENCODING 101
SWIDTH 602 0
DWIDTH 15 0
BBX 12 13 2 0
BITMAP
0F80
3FE0
78E0
7070
E070
FFF0
FFF0
E000
E000
7000
7810
3FF0
0FE0
ENDCHAR
STARTCHAR f
ENCODING 102
SWIDTH 602 0
DWIDTH 15 0
BBX 14 19 1 0
BITMAP
03F8
07FC
0F04
0E00
0E00
0E00
FFF8
FFF8
0E00
0E00
0E00
0E00
0E00
0E00
0E00
0E00
0E00
0E00
0E00
ENDCHAR
STARTCHAR g
ENCODING 103
SWIDTH 602 0
DWIDTH 15 0
BBX 12 18 1 -5
BITMAP
1F30
3FB0
78F0
7070
E070
E070
E070
E070
E070
F0F0
71F0
7F70
1E70
0070
0060
60E0
7FC0
3F80
ENDCHAR
STARTCHAR h
ENCODING 104
SWIDTH 602 0
DWIDTH 15 0
BBX 11 18 2 0
BITMAP
E000
E000
E000
E000
E000
E380
EFC0
EFE0
F8E0
F0E0
E0E0
E0E0
E0E0
E0E0
E0E0
E0E0
E0E0
E0E0
ENDCHAR
STARTCHAR i
ENCODING 105
SWIDTH 602 0
DWIDTH 15 0
BBX 8 18 2 0
BITMAP
07
07
07
00
00
FF
FF
07
07
07
07
07
07
07
07
07
07
07
ENDCHAR
STARTCHAR j
ENCODING 106
SWIDTH 602 0
DWIDTH 15 0
BBX 9 23 2 -5
BITMAP
0380
0380
0380
0000
0000
7F80
7F80
0380
0380
0380
0380
0380
0380
0380
0380
0380
0380
0380
0380
0380
8780
FF00
7E00
ENDCHAR
STARTCHAR k
ENCODING 107
SWIDTH 602 0
DWIDTH 15 0
BBX 12 18 3 0
BITMAP
E000
E000
E000
E000
E000
E0E0
E180
E380
E700
EE00
EC00
FE00
EF00
E780
E780
E3C0
E1E0
E0F0
ENDCHAR
STARTCHAR l
ENCODING 108
SWIDTH 602 0
DWIDTH 15 0
BBX 8 18 2 0
BITMAP
FF
FF
07
07
07
07
07
07
07
07
07
07
07
07
07
07
07
07
ENDCHAR
STARTCHAR m
ENCODING 109
SWIDTH 602 0
DWIDTH 15 0
BBX 14 13 1 0
BITMAP
CE38
DF7C
F3CC
E38C
C30C
C30C
C30C
C30C
C30C
C30C
C30C
C30C
C30C
ENDCHAR
STARTCHAR n
ENCODING 110
SWIDTH 602 0
DWIDTH 15 0
BBX 11 13 2 0
BITMAP
E380
EFC0
EFE0
F8E0
F0E0
E0E0
E0E0
E0E0
E0E0
E0E0
E0E0
E0E0
E0E0
ENDCHAR
STARTCHAR o
ENCODING 111
SWIDTH 602 0
DWIDTH 15 0
BBX 13 13 1 0
BITMAP
0F80
3FE0
78F0
7070
E038
E038
E038
E038
E038
7070
78F0
3FE0
0F80
ENDCHAR
STARTCHAR p
ENCODING 112
SWIDTH 602 0
DWIDTH 15 0
BBX 12 18 2 -5
BITMAP
E780
EFE0
F8E0
F070
E070
E070
E070
E070
E070
E0E0
F1E0
EFC0
E780
E000
E000
E000
E000
E000
ENDCHAR
STARTCHAR q
ENCODING 113
SWIDTH 602 0
DWIDTH 15 0
BBX 12 18 1 -5
BITMAP
1F30
3FB0
78F0
7070
E070
E070
E070
E070
E070
E0F0
71F0
7F70
1E70
0070
0070
0070
0070
0070
ENDCHAR
STARTCHAR r
ENCODING 114
SWIDTH 602 0
DWIDTH 15 0
BBX 10 13 4 0
BITMAP
E7C0
EFC0
F8C0
F0C0
E000
E000
E000
E000
E000
E000
E000
E000
E000
ENDCHAR
STARTCHAR s
ENCODING 115
SWIDTH 602 0
DWIDTH 15 0
BBX 11 13 2 0
BITMAP
3F80
7FC0
F040
E000
F800
7F00
3FC0
0FE0
01E0
00E0
C1E0
FFC0
7F00
ENDCHAR
STARTCHAR t
ENCODING 116
SWIDTH 602 0
DWIDTH 15 0
BBX 12 16 1 0
BITMAP
1C00
1C00
1C00
FFF0
FFF0
1C00
1C00
1C00
1C00
1C00
1C00
1C00
1C00
1E00
0FF0
07F0
ENDCHAR
STARTCHAR u
ENCODING 117
SWIDTH 602 0
DWIDTH 15 0
BBX 11 13 2 0
BITMAP
E0E0
E0E0
E0E0
E0E0
E0E0
E0E0
E0E0
E0E0
E1E0
E3E0
FEE0
7EE0
38E0
ENDCHAR
STARTCHAR v
ENCODING 118
SWIDTH 602 0
DWIDTH 15 0
BBX 14 13 0 0
BITMAP
E00C
F018
7018
7030
3830
3870
3C60
1CE0
1EC0
0EC0
0F80
0780
0700
ENDCHAR
STARTCHAR w
ENCODING 119
SWIDTH 602 0
DWIDTH 15 0
BBX 15 13 0 0
BITMAP
E006
E386
E384
73CC
77CC
76CC
76CC
76C8
3C78
3C78
3C78
3C78
3830
ENDCHAR
STARTCHAR x
ENCODING 120
SWIDTH 602 0
DWIDTH 15 0
BBX 13 13 1 0
BITMAP
F038
7860
38E0
3CC0
1F80
0F80
0700
0F80
1FC0
19E0
30E0
70F0
E078
ENDCHAR
STARTCHAR y
ENCODING 121
SWIDTH 602 0
DWIDTH 15 0
BBX 13 18 1 -5
BITMAP
E018
F030
7030
7070
3860
38E0
3CC0
1CC0
1D80
0F80
0F00
0700
0700
0600
0E00
0C00
7C00
7000
ENDCHAR
STARTCHAR z
ENCODING 122
SWIDTH 602 0
DWIDTH 15 0
BBX 12 13 1 0
BITMAP
FFF0
FFF0
00E0
01C0
0380
0700
0E00
0C00
1800
3000
6000
FFF0
FFF0
ENDCHAR
STARTCHAR braceleft
ENCODING 123
SWIDTH 602 0
DWIDTH 15 0
BBX 10 22 3 -4
BITMAP
07C0
0FC0
1E00
1C00
1C00
0C00
0E00
0600
0600
0E00
F800
F800
0C00
0600
0600
0E00
0C00
1C00
1C00
1E00
0FC0
07C0
ENDCHAR
STARTCHAR bar
ENCODING 124
SWIDTH 602 0
DWIDTH 15 0
BBX 2 22 6 -4
BITMAP
C0
C0
C0
C0
C0
C0
C0
C0
C0
C0
C0
C0
C0
C0
C0
C0
C0
C0
C0
C0
C0
C0
ENDCHAR
STARTCHAR braceright
ENCODING 125
SWIDTH 602 0
DWIDTH 15 0
BBX 10 22 2 -4
BITMAP
F800
FE00
0F00
0700
0700
0600
0E00
0C00
0C00
0E00
07C0
07C0
0E00
0C00
0C00
0C00
0600
0700
0700
0F00
FE00
F800
ENDCHAR
STARTCHAR asciitilde
ENCODING 126
SWIDTH 602 0
DWIDTH 15 0
BBX 13 5 1 4
BITMAP
3818
7E18
C718
C3F0
C0E0
ENDCHAR
STARTCHAR space
ENCODING 160
SWIDTH 602 0
DWIDTH 15 0
BBX 1 1 0 0
BITMAP
00
ENDCHAR
STARTCHAR exclamdown
ENCODING 161
SWIDTH 602 0
DWIDTH 15 0
BBX 4 18 5 -5
BITMAP
F0
F0
F0
00
00
60
60
60
60
60
70
70
70
70
70
70
70
70
ENDCHAR
STARTCHAR cent
ENCODING 162
SWIDTH 602 0
DWIDTH 15 0
BBX 10 18 2 0
BITMAP
0600
0600
0FC0
3FC0
7640
7600
E600
E600
E600
E600
E600
E600
7600
7640
3FC0
1FC0
0600
0600
ENDCHAR
STARTCHAR sterling
ENCODING 163
SWIDTH 602 0
DWIDTH 15 0
BBX 10 18 3 0
BITMAP
07C0
1FC0
1840
3800
3800
3800
3800
3800
FE00
FE00
3800
3800
3800
3800
3000
6000
FFC0
FFC0
ENDCHAR
STARTCHAR currency
ENCODING 164
SWIDTH 602 0
DWIDTH 15 0
BBX 12 12 1 3
BITMAP
4020
E070
6F60
3FC0
70E0
6060
6060
6060
30C0
7FE0
EF70
4020
ENDCHAR
STARTCHAR yen
ENCODING 165
SWIDTH 602 0
DWIDTH 15 0
BBX 15 18 0 0
BITMAP
F00E
700C
7818
3C38
1C30
1E60
0FE0
07C0
0780
3FF0
3FF0
0380
3FF0
3FF0
0380
0380
0380
0380
ENDCHAR
STARTCHAR brokenbar
ENCODING 166
SWIDTH 602 0
DWIDTH 15 0
BBX 2 22 6 -4
BITMAP
C0
C0
C0
C0
C0
C0
C0
C0
C0
00
00
00
00
C0
C0
C0
C0
C0
C0
C0
C0
C0
ENDCHAR
STARTCHAR section
ENCODING 167
SWIDTH 602 0
DWIDTH 15 0
BBX 10 22 3 -4
BITMAP
1F80
7F80
E080
C000
C000
F000
7C00
7E00
5F00
C780
C180
E180
F980
7F00
3E00
0F80
03C0
01C0
01C0
83C0
FF80
7F00
ENDCHAR
STARTCHAR dieresis
ENCODING 168
SWIDTH 602 0
DWIDTH 15 0
BBX 7 2 4 16
BITMAP
C6
C6
ENDCHAR
STARTCHAR copyright
ENCODING 169
SWIDTH 602 0
DWIDTH 15 0
BBX 14 18 0 0
BITMAP
0FC0
1FF0
3038
6018
67DC
CFCC
DC4C
D80C
D80C
D80C
D80C
DC4C
CFCC
E798
6018
7030
3FE0
0FC0
ENDCHAR
STARTCHAR ordfeminine
ENCODING 170
SWIDTH 602 0
DWIDTH 15 0
BBX 9 9 3 9
BITMAP
7E00
FF00
0300
3F00
7F00
C300
C300
FF80
7380
ENDCHAR
STARTCHAR guillemotleft
ENCODING 171
SWIDTH 602 0
DWIDTH 15 0
BBX 12 11 1 1
BITMAP
0420
0E70
18E0
39C0
7380
E700
7380
39C0
18E0
0C70
0620
ENDCHAR
STARTCHAR logicalnot
ENCODING 172
SWIDTH 602 0
DWIDTH 15 0
BBX 13 7 1 3
BITMAP
FFF8
FFF8
0018
0018
0018
0018
0018
ENDCHAR
STARTCHAR hyphen
ENCODING 173
SWIDTH 602 0
DWIDTH 15 0
BBX 10 2 2 6
BITMAP
FFC0
FFC0
ENDCHAR
STARTCHAR registered
ENCODING 174
SWIDTH 602 0
DWIDTH 15 0
BBX 10 11 3 7
BITMAP
1E00
2100
5E80
9240
9240
9C40
9440
9440
5280
2100
1E00
ENDCHAR
STARTCHAR macron
ENCODING 175
SWIDTH 602 0
DWIDTH 15 0
BBX 7 2 4 16
BITMAP
FE
FE
ENDCHAR
STARTCHAR degree
ENCODING 176
SWIDTH 602 0
DWIDTH 15 0
BBX 4 4 5 14
BITMAP
60
90
90
60
ENDCHAR
STARTCHAR plusminus
ENCODING 177
SWIDTH 602 0
DWIDTH 15 0
BBX 14 13 0 0
BITMAP
0300
0300
0300
0300
FFFC
FFFC
0300
0300
0300
0000
0000
FFFC
FFFC
ENDCHAR
STARTCHAR twosuperior
ENCODING 178
SWIDTH 602 0
DWIDTH 15 0
BBX 5 9 -2 9
BITMAP
F0
88
08
08
10
20
40
C0
F8
ENDCHAR
STARTCHAR threesuperior
ENCODING 179
SWIDTH 602 0
DWIDTH 15 0
BBX 5 9 -2 9
BITMAP
F0
88
08
08
70
18
08
08
F0
ENDCHAR
STARTCHAR acute
ENCODING 180
SWIDTH 602 0
DWIDTH 15 0
BBX 5 4 5 14
BITMAP
38
30
60
C0
ENDCHAR
STARTCHAR mu
ENCODING 181
SWIDTH 602 0
DWIDTH 15 0
BBX 11 17 2 -4
BITMAP
E0E0
E0E0
E0E0
E0E0
E0E0
E0E0
E0E0
E0E0
E1E0
E3E0
FEE0
FEE0
FCE0
E000
E000
E000
E000
ENDCHAR
STARTCHAR paragraph
ENCODING 182
SWIDTH 602 0
DWIDTH 15 0
BBX 10 22 2 -4
BITMAP
3FC0
7FC0
FEC0
FEC0
FEC0
FEC0
7EC0
7EC0
1EC0
06C0
06C0
06C0
06C0
06C0
06C0
06C0
06C0
06C0
06C0
06C0
06C0
06C0
ENDCHAR
STARTCHAR periodcentered
ENCODING 183
SWIDTH 602 0
DWIDTH 15 0
BBX 3 3 6 5
BITMAP
E0
E0
E0
ENDCHAR
STARTCHAR cedilla
ENCODING 184
SWIDTH 602 0
DWIDTH 15 0
BBX 4 5 6 -5
BITMAP
60
C0
30
30
E0
ENDCHAR
STARTCHAR onesuperior
ENCODING 185
SWIDTH 602 0
DWIDTH 15 0
BBX 5 9 -2 9
BITMAP
60
E0
20
20
20
20
20
20
F8
ENDCHAR
STARTCHAR ordmasculine
ENCODING 186
SWIDTH 602 0
DWIDTH 15 0
BBX 10 9 2 9
BITMAP
1E00
7F80
F3C0
E1C0
E1C0
E1C0
F3C0
7F80
1E00
ENDCHAR
STARTCHAR guillemotright
ENCODING 187
SWIDTH 602 0
DWIDTH 15 0
BBX 12 11 2 1
BITMAP
4600
E300
7180
39C0
1CE0
0E70
1CE0
39C0
7180
E700
4200
ENDCHAR
STARTCHAR onequarter
ENCODING 188
SWIDTH 602 0
DWIDTH 15 0
BBX 15 18 2 0
BITMAP
600E
E00C
2018
2038
2070
2060
20C0
21C0
F980
030C
070C
0E14
0C14
1824
3844
307E
6004
E004
ENDCHAR
STARTCHAR onehalf
ENCODING 189
SWIDTH 602 0
DWIDTH 15 0
BBX 15 18 2 0
BITMAP
600E
E00C
2018
2038
2070
2060
20C0
21C0
F980
033C
0722
0E02
0C02
1804
3808
3010
6030
E03E
ENDCHAR
STARTCHAR threequarters
ENCODING 190
SWIDTH 602 0
DWIDTH 15 0
BBX 15 18 2 0
BITMAP
F00E
880C
0818
0838
7070
1860
08C0
09C0
F180
030C
070C
0E14
0C14
1824
3844
307E
6004
E004
ENDCHAR
STARTCHAR questiondown
ENCODING 191
SWIDTH 602 0
DWIDTH 15 0
BBX 12 18 1 -5
BITMAP
0380
0380
0380
0000
0000
0380
0380
0380
0700
0E00
3800
7000
E000
E000
E030
F030
7FF0
1FE0
ENDCHAR
STARTCHAR Agrave
ENCODING 192
SWIDTH 602 0
DWIDTH 15 0
BBX 15 23 0 0
BITMAP
0700
0300
0180
00C0
0000
0380
03C0
07C0
07C0
07E0
0EE0
0CE0
0CF0
1870
1870
1838
3FF8
3FF8
301C
601C
601C
600E
C00E
ENDCHAR
STARTCHAR Aacute
ENCODING 193
SWIDTH 602 0
DWIDTH 15 0
BBX 15 23 0 0
BITMAP
01C0
0180
0300
0600
0000
0380
03C0
07C0
07C0
07E0
0EE0
0CE0
0CF0
1870
1870
1838
3FF8
3FF8
301C
601C
601C
600E
C00E
ENDCHAR
STARTCHAR Acircumflex
ENCODING 194
SWIDTH 602 0
DWIDTH 15 0
BBX 15 23 0 0
BITMAP
0780
0780
0CC0
1860
0000
0380
03C0
07C0
07C0
07E0
0EE0
0CE0
0CF0
1870
1870
1838
3FF8
3FF8
301C
601C
601C
600E
C00E
ENDCHAR
STARTCHAR Atilde
ENCODING 195
SWIDTH 602 0
DWIDTH 15 0
BBX 15 22 0 0
BITMAP
0E60
1FE0
19C0
0000
0380
03C0
07C0
07C0
07E0
0EE0
0CE0
0CF0
1870
1870
1838
3FF8
3FF8
301C
601C
601C
600E
C00E
ENDCHAR
STARTCHAR Adieresis
ENCODING 196
SWIDTH 602 0
DWIDTH 15 0
BBX 15 21 0 0
BITMAP
0C60
0C60
0000
0380
03C0
07C0
07C0
07E0
0EE0
0CE0
0CF0
1870
1870
1838
3FF8
3FF8
301C
601C
601C
600E
C00E
ENDCHAR
STARTCHAR Aring
ENCODING 197
SWIDTH 602 0
DWIDTH 15 0
BBX 15 23 0 0
BITMAP
0180
0240
0240
0180
0000
0380
03C0
07C0
07C0
07E0
0EE0
0CE0
0CF0
1870
1870
1838
3FF8
3FF8
301C
601C
601C
600E
C00E
ENDCHAR
STARTCHAR AE
ENCODING 198
SWIDTH 602 0
DWIDTH 15 0
BBX 16 18 0 0
BITMAP
01FE
01FE
01E0
03E0
03E0
06E0
06E0
0EE0
0CFC
0CFC
18E0
18E0
3FE0
3FE0
30E0
60E0
60FF
C0FF
ENDCHAR
STARTCHAR Ccedilla
ENCODING 199
SWIDTH 602 0
DWIDTH 15 0
BBX 13 23 1 -5
BITMAP
07F0
1FF8
3C18
7800
7000
7000
E000
E000
E000
E000
E000
E000
F000
7000
7800
3E08
1FF8
07F0
0200
0600
0180
0180
0700
ENDCHAR
STARTCHAR Egrave
ENCODING 200
SWIDTH 602 0
DWIDTH 15 0
BBX 12 23 2 0
BITMAP
1C00
0C00
0600
0300
0000
FFE0
FFE0
E000
E000
E000
E000
E000
FFC0
FFC0
E000
E000
E000
E000
E000
E000
E000
FFF0
FFF0
ENDCHAR
STARTCHAR Eacute
ENCODING 201
SWIDTH 602 0
DWIDTH 15 0
BBX 12 23 2 0
BITMAP
0700
0600
0C00
1800
0000
FFE0
FFE0
E000
E000
E000
E000
E000
FFC0
FFC0
E000
E000
E000
E000
E000
E000
E000
FFF0
FFF0
ENDCHAR
STARTCHAR Ecircumflex
ENCODING 202
SWIDTH 602 0
DWIDTH 15 0
BBX 12 23 2 0
BITMAP
0F00
0F00
1980
30C0
0000
FFE0
FFE0
E000
E000
E000
E000
E000
FFC0
FFC0
E000
E000
E000
E000
E000
E000
E000
FFF0
FFF0
ENDCHAR
STARTCHAR Edieresis
ENCODING 203
SWIDTH 602 0
DWIDTH 15 0
BBX 12 21 2 0
BITMAP
3180
3180
0000
FFE0
FFE0
E000
E000
E000
E000
E000
FFC0
FFC0
E000
E000
E000
E000
E000
E000
E000
FFF0
FFF0
ENDCHAR
STARTCHAR Igrave
ENCODING 204
SWIDTH 602 0
DWIDTH 15 0
BBX 11 23 2 0
BITMAP
1C00
0C00
0600
0300
0000
FFE0
FFE0
0E00
0E00
0E00
0E00
0E00
0E00
0E00
0E00
0E00
0E00
0E00
0E00
0E00
0E00
FFE0
FFE0
ENDCHAR
STARTCHAR Iacute
ENCODING 205
SWIDTH 602 0
DWIDTH 15 0
BBX 11 23 2 0
BITMAP
0700
0600
0C00
1800
0000
FFE0
FFE0
0E00
0E00
0E00
0E00
0E00
0E00
0E00
0E00
0E00
0E00
0E00
0E00
0E00
0E00
FFE0
FFE0
ENDCHAR
STARTCHAR Icircumflex
ENCODING 206
SWIDTH 602 0
DWIDTH 15 0
BBX 11 23 2 0
BITMAP
1E00
1E00
3300
6180
0000
FFE0
FFE0
0E00
0E00
0E00
0E00
0E00
0E00
0E00
0E00
0E00
0E00
0E00
0E00
0E00
0E00
FFE0
FFE0
ENDCHAR
STARTCHAR Idieresis
ENCODING 207
SWIDTH 602 0
DWIDTH 15 0
BBX 11 21 2 0
BITMAP
3180
3180
0000
FFE0
FFE0
0E00
0E00
0E00
0E00
0E00
0E00
0E00
0E00
0E00
0E00
0E00
0E00
0E00
0E00
FFE0
FFE0
ENDCHAR
STARTCHAR Eth
ENCODING 208
SWIDTH 602 0
DWIDTH 15 0
BBX 14 18 0 0
BITMAP
7FC0
7FF0
70F8
7038
703C
701C
701C
701C
FE1C
FE1C
701C
701C
701C
7038
7038
70F0
7FE0
7F80
ENDCHAR
STARTCHAR Ntilde
ENCODING 209
SWIDTH 602 0
DWIDTH 15 0
BBX 11 22 2 0
BITMAP
3980
7F80
6700
0000
E060
E060
F060
F060
F860
F860
DC60
DC60
CE60
CE60
C760
C760
C3E0
C3E0
C1E0
C1E0
C0E0
C0E0
ENDCHAR
STARTCHAR Ograve
ENCODING 210
SWIDTH 602 0
DWIDTH 15 0
BBX 14 23 0 0
BITMAP
0700
0300
0180
00C0
0000
0FC0
1FE0
3870
7038
7038
E01C
E01C
E01C
E01C
E01C
E01C
E01C
E01C
7038
7038
3870
1FE0
0FC0
ENDCHAR
STARTCHAR Oacute
ENCODING 211
SWIDTH 602 0
DWIDTH 15 0
BBX 14 23 0 0
BITMAP
0380
0300
0600
0C00
0000
0FC0
1FE0
3870
7038
7038
E01C
E01C
E01C
E01C
E01C
E01C
E01C
E01C
7038
7038
3870
1FE0
0FC0
ENDCHAR
STARTCHAR Ocircumflex
ENCODING 212
SWIDTH 602 0
DWIDTH 15 0
BBX 14 23 0 0
BITMAP
0780
0780
0CC0
1860
0000
0FC0
1FE0
3870
7038
7038
E01C
E01C
E01C
E01C
E01C
E01C
E01C
E01C
7038
7038
3870
1FE0
0FC0
ENDCHAR
STARTCHAR Otilde
ENCODING 213
SWIDTH 602 0
DWIDTH 15 0
BBX 14 22 0 0
BITMAP
0E60
1FE0
19C0
0000
0FC0
1FE0
3870
7038
7038
E01C
E01C
E01C
E01C
E01C
E01C
E01C
E01C
7038
7038
3870
1FE0
0FC0
ENDCHAR
STARTCHAR Odieresis
ENCODING 214
SWIDTH 602 0
DWIDTH 15 0
BBX 14 21 0 0
BITMAP
18C0
18C0
0000
0FC0
1FE0
3870
7038
7038
E01C
E01C
E01C
E01C
E01C
E01C
E01C
E01C
7038
7038
3870
1FE0
0FC0
ENDCHAR
STARTCHAR multiply
ENCODING 215
SWIDTH 602 0
DWIDTH 15 0
BBX 13 13 1 0
BITMAP
4010
E038
7070
38E0
1DC0
0F80
0700
0F80
1DC0
38E0
7070
E038
4010
ENDCHAR
STARTCHAR Oslash
ENCODING 216
SWIDTH 602 0
DWIDTH 15 0
BBX 14 18 1 0
BITMAP
0F9C
1FF8
3870
7070
7078
E0DC
E1DC
E19C
E31C
E71C
E61C
EE1C
EC1C
7838
7838
3870
7FE0
E7C0
ENDCHAR
STARTCHAR Ugrave
ENCODING 217
SWIDTH 602 0
DWIDTH 15 0
BBX 11 23 2 0
BITMAP
1C00
0C00
0600
0300
0000
E060
E060
E060
E060
E060
E060
E060
E060
E060
E060
E060
E060
E060
E060
E060
70C0
7FC0
1F00
ENDCHAR
STARTCHAR Uacute
ENCODING 218
SWIDTH 602 0
DWIDTH 15 0
BBX 11 23 2 0
BITMAP
0700
0600
0C00
1800
0000
E060
E060
E060
E060
E060
E060
E060
E060
E060
E060
E060
E060
E060
E060
E060
70C0
7FC0
1F00
ENDCHAR
STARTCHAR Ucircumflex
ENCODING 219
SWIDTH 602 0
DWIDTH 15 0
BBX 11 23 2 0
BITMAP
1E00
1E00
3300
6180
0000
E060
E060
E060
E060
E060
E060
E060
E060
E060
E060
E060
E060
E060
E060
E060
70C0
7FC0
1F00
ENDCHAR
STARTCHAR Udieresis
ENCODING 220
SWIDTH 602 0
DWIDTH 15 0
BBX 11 21 2 0
BITMAP
3180
3180
0000
E060
E060
E060
E060
E060
E060
E060
E060
E060
E060
E060
E060
E060
E060
E060
70C0
7FC0
1F00
ENDCHAR
STARTCHAR Yacute
ENCODING 221
SWIDTH 602 0
DWIDTH 15 0
BBX 15 23 0 0
BITMAP
01C0
0180
0300
0600
0000
E00E
700C
7818
3818
3C30
1C70
1E60
0FE0
07C0
0780
0380
0380
0380
0380
0380
0380
0380
0380
ENDCHAR
STARTCHAR Thorn
ENCODING 222
SWIDTH 602 0
DWIDTH 15 0
BBX 11 18 3 0
BITMAP
E000
E000
E000
FF80
FFC0
E1E0
E0E0
E0E0
E0E0
E0E0
E0E0
E1C0
FF80
FE00
E000
E000
E000
E000
ENDCHAR
STARTCHAR germandbls
ENCODING 223
SWIDTH 602 0
DWIDTH 15 0
BBX 13 19 2 0
BITMAP
3F00
7F80
E3C0
E1C0
E1C0
E380
E300
E600
E600
E700
E7C0
E3E0
E1F0
E078
E038
E038
E478
E7F0
E3E0
ENDCHAR
STARTCHAR agrave
ENCODING 224
SWIDTH 602 0
DWIDTH 15 0
BBX 13 18 2 0
BITMAP
0E00
0600
0300
0180
0000
1F80
7FC0
40E0
00E0
00E0
1FE0
7FE0
70E0
E0E0
E0E0
F1E0
7F78
3E78
ENDCHAR
STARTCHAR aacute
ENCODING 225
SWIDTH 602 0
DWIDTH 15 0
BBX 13 18 2 0
BITMAP
0700
0600
0C00
1800
0000
1F80
7FC0
40E0
00E0
00E0
1FE0
7FE0
70E0
E0E0
E0E0
F1E0
7F78
3E78
ENDCHAR
STARTCHAR acircumflex
ENCODING 226
SWIDTH 602 0
DWIDTH 15 0
BBX 13 18 2 0
BITMAP
0F00
0F00
1980
30C0
0000
1F80
7FC0
40E0
00E0
00E0
1FE0
7FE0
70E0
E0E0
E0E0
F1E0
7F78
3E78
ENDCHAR
STARTCHAR atilde
ENCODING 227
SWIDTH 602 0
DWIDTH 15 0
BBX 13 17 2 0
BITMAP
1CC0
3FC0
3380
0000
1F80
7FC0
40E0
00E0
00E0
1FE0
7FE0
70E0
E0E0
E0E0
F1E0
7F78
3E78
ENDCHAR
STARTCHAR adieresis
ENCODING 228
SWIDTH 602 0
DWIDTH 15 0
BBX 13 16 2 0
BITMAP
3180
3180
0000
1F80
7FC0
40E0
00E0
00E0
1FE0
7FE0
70E0
E0E0
E0E0
F1E0
7F78
3E78
ENDCHAR
STARTCHAR aring
ENCODING 229
SWIDTH 602 0
DWIDTH 15 0
BBX 13 18 2 0
BITMAP
0600
0900
0900
0600
0000
1F80
7FC0
40E0
00E0
00E0
1FE0
7FE0
70E0
E0E0
E0E0
F1E0
7F78
3E78
ENDCHAR
STARTCHAR ae
ENCODING 230
SWIDTH 602 0
DWIDTH 15 0
BBX 14 13 1 0
BITMAP
3CF0
7EF8
4798
071C
071C
3FFC
7FFC
F700
E700
E700
E784
7DFC
38F8
ENDCHAR
STARTCHAR ccedilla
ENCODING 231
SWIDTH 602 0
DWIDTH 15 0
BBX 12 18 2 -5
BITMAP
0FE0
3FF0
7830
7000
E000
E000
E000
E000
E000
7000
7810
3FF0
0FE0
0400
0C00
0300
0300
0E00
ENDCHAR
STARTCHAR egrave
ENCODING 232
SWIDTH 602 0
DWIDTH 15 0
BBX 12 18 2 0
BITMAP
0E00
0600
0300
0180
0000
0F80
3FE0
78E0
7070
E070
FFF0
FFF0
E000
E000
7000
7810
3FF0
0FE0
ENDCHAR
STARTCHAR eacute
ENCODING 233
SWIDTH 602 0
DWIDTH 15 0
BBX 12 18 2 0
BITMAP
0700
0600
0C00
1800
0000
0F80
3FE0
78E0
7070
E070
FFF0
FFF0
E000
E000
7000
7810
3FF0
0FE0
ENDCHAR
STARTCHAR ecircumflex
ENCODING 234
SWIDTH 602 0
DWIDTH 15 0
BBX 12 18 2 0
BITMAP
0F00
0F00
1980
30C0
0000
0F80
3FE0
78E0
7070
E070
FFF0
FFF0
E000
E000
7000
7810
3FF0
0FE0
ENDCHAR
STARTCHAR edieresis
ENCODING 235
SWIDTH 602 0
DWIDTH 15 0
BBX 12 16 2 0
BITMAP
3180
3180
0000
0F80
3FE0
78E0
7070
E070
FFF0
FFF0
E000
E000
7000
7810
3FF0
0FE0
ENDCHAR
STARTCHAR igrave
ENCODING 236
SWIDTH 602 0
DWIDTH 15 0
BBX 9 18 2 0
BITMAP
0E00
0600
0300
0180
0000
FF00
FF00
0700
0700
0700
0700
0700
0700
0700
0700
0700
0700
0700
ENDCHAR
STARTCHAR iacute
ENCODING 237
SWIDTH 602 0
DWIDTH 15 0
BBX 8 18 2 0
BITMAP
07
06
0C
18
00
FF
FF
07
07
07
07
07
07
07
07
07
07
07
ENDCHAR
STARTCHAR icircumflex
ENCODING 238
SWIDTH 602 0
DWIDTH 15 0
BBX 10 18 2 0
BITMAP
0F00
0F00
1980
30C0
0000
FF00
FF00
0700
0700
0700
0700
0700
0700
0700
0700
0700
0700
0700
ENDCHAR
STARTCHAR idieresis
ENCODING 239
SWIDTH 602 0
DWIDTH 15 0
BBX 9 16 2 0
BITMAP
3180
3180
0000
FF00
FF00
0700
0700
0700
0700
0700
0700
0700
0700
0700
0700
0700
ENDCHAR
STARTCHAR eth
ENCODING 240
SWIDTH 602 0
DWIDTH 15 0
BBX 12 18 2 0
BITMAP
FE00
8F00
3E00
3300
2180
1FC0
3FE0
78E0
F0F0
E070
E070
E070
E070
E070
70E0
78E0
3FC0
1F80
ENDCHAR
STARTCHAR ntilde
ENCODING 241
SWIDTH 602 0
DWIDTH 15 0
BBX 11 17 2 0
BITMAP
3980
7F80
6700
0000
E380
EFC0
EFE0
F8E0
F0E0
E0E0
E0E0
E0E0
E0E0
E0E0
E0E0
E0E0
E0E0
ENDCHAR
STARTCHAR ograve
ENCODING 242
SWIDTH 602 0
DWIDTH 15 0
BBX 13 18 1 0
BITMAP
0E00
0600
0300
0180
0000
0F80
3FE0
78F0
7070
E038
E038
E038
E038
E038
7070
78F0
3FE0
0F80
ENDCHAR
STARTCHAR oacute
ENCODING 243
SWIDTH 602 0
DWIDTH 15 0
BBX 13 18 1 0
BITMAP
0380
0300
0600
0C00
0000
0F80
3FE0
78F0
7070
E038
E038
E038
E038
E038
7070
78F0
3FE0
0F80
ENDCHAR
STARTCHAR ocircumflex
ENCODING 244
SWIDTH 602 0
DWIDTH 15 0
BBX 13 18 1 0
BITMAP
0780
0780
0CC0
1860
0000
0F80
3FE0
78F0
7070
E038
E038
E038
E038
E038
7070
78F0
3FE0
0F80
ENDCHAR
STARTCHAR otilde
ENCODING 245
SWIDTH 602 0
DWIDTH 15 0
BBX 13 17 1 0
BITMAP
0E60
1FE0
19C0
0000
0F80
3FE0
78F0
7070
E038
E038
E038
E038
E038
7070
78F0
3FE0
0F80
ENDCHAR
STARTCHAR odieresis
ENCODING 246
SWIDTH 602 0
DWIDTH 15 0
BBX 13 16 1 0
BITMAP
18C0
18C0
0000
0F80
3FE0
78F0
7070
E038
E038
E038
E038
E038
7070
78F0
3FE0
0F80
ENDCHAR
STARTCHAR divide
ENCODING 247
SWIDTH 602 0
DWIDTH 15 0
BBX 13 13 1 0
BITMAP
0700
0700
0700
0000
0000
0000
FFF8
FFF8
0000
0000
0700
0700
0700
ENDCHAR
STARTCHAR oslash
ENCODING 248
SWIDTH 602 0
DWIDTH 15 0
BBX 13 13 1 0
BITMAP
0FB8
3FF0
78F0
70F0
E1B8
E3B8
E738
EE38
EC38
7870
78F0
7FE0
EF80
ENDCHAR
STARTCHAR ugrave
ENCODING 249
SWIDTH 602 0
DWIDTH 15 0
BBX 11 18 2 0
BITMAP
1C00
0C00
0600
0300
0000
E0E0
E0E0
E0E0
E0E0
E0E0
E0E0
E0E0
E0E0
E1E0
E3E0
FEE0
7EE0
38E0
ENDCHAR
STARTCHAR uacute
ENCODING 250
SWIDTH 602 0
DWIDTH 15 0
BBX 11 18 2 0
BITMAP
0700
0600
0C00
1800
0000
E0E0
E0E0
E0E0
E0E0
E0E0
E0E0
E0E0
E0E0
E1E0
E3E0
FEE0
7EE0
38E0
ENDCHAR
STARTCHAR ucircumflex
ENCODING 251
SWIDTH 602 0
DWIDTH 15 0
BBX 11 18 2 0
BITMAP
0F00
0F00
1980
30C0
0000
E0E0
E0E0
E0E0
E0E0
E0E0
E0E0
E0E0
E0E0
E1E0
E3E0
FEE0
7EE0
38E0
ENDCHAR
STARTCHAR udieresis
ENCODING 252
SWIDTH 602 0
DWIDTH 15 0
BBX 11 16 2 0
BITMAP
3180
3180
0000
E0E0
E0E0
E0E0
E0E0
E0E0
E0E0
E0E0
E0E0
E1E0
E3E0
FEE0
7EE0
38E0
ENDCHAR
STARTCHAR yacute
ENCODING 253
SWIDTH 602 0
DWIDTH 15 0
BBX 13 23 1 -5
BITMAP
0380
0300
0600
0C00
0000
E018
F030
7030
7070
3860
38E0
3CC0
1CC0
1D80
0F80
0F00
0700
0700
0600
0E00
0C00
7C00
7000
ENDCHAR
STARTCHAR thorn
ENCODING 254
SWIDTH 602 0
DWIDTH 15 0
BBX 12 22 2 -5
BITMAP
E000
E000
E000
E000
E780
EFE0
F8E0
F070
E070
E070
E070
E070
E070
E0E0
F1E0
EFC0
E780
E000
E000
E000
E000
E000
ENDCHAR
STARTCHAR ydieresis
ENCODING 255
SWIDTH 602 0
DWIDTH 15 0
BBX 13 21 1 -5
BITMAP
18C0
18C0
0000
E018
F030
7030
7070
3860
38E0
3CC0
1CC0
1D80
0F80
0F00
0700
0700
0600
0E00
0C00
7C00
7000
ENDCHAR
ENDFONT
